<svg width="501" height="241" viewBox="0 0 501 241" fill="none" xmlns="http://www.w3.org/2000/svg">
<g filter="url(#filter0_d_568_115)">
<path d="M239.395 134C233.001 134 226.993 132.75 221.371 130.25C215.748 127.75 210.831 124.337 206.619 120.012C202.408 115.687 199.085 110.636 196.651 104.861C194.217 99.0861 193 92.9155 193 86.3488C193 79.7829 194.221 73.6032 196.663 67.8095C199.105 62.0159 202.418 56.9762 206.604 52.6905C210.79 48.4048 215.712 45.0119 221.371 42.5119C227.03 40.0119 233.027 38.7619 239.364 38.7619C242.903 38.7619 246.318 39.1587 249.61 39.9524C252.902 40.746 256.055 41.8571 259.068 43.2857V51.2619C256.132 49.5159 253.022 48.1865 249.737 47.2738C246.453 46.3611 243.004 45.9048 239.389 45.9048C228.463 45.9048 219.159 49.8333 211.477 57.6905C203.795 65.5476 199.955 75.0917 199.955 86.3226C199.955 97.5544 203.798 107.118 211.486 115.013C219.173 122.909 228.485 126.857 239.42 126.857C250.355 126.857 259.648 122.915 267.298 115.031C274.948 107.146 278.773 97.596 278.773 86.381C278.773 83.6206 278.522 80.9464 278.019 78.3583C277.517 75.7702 276.764 73.2857 275.759 70.9048H283.177C284.027 73.3984 284.665 75.9131 285.09 78.4488C285.515 80.9853 285.727 83.6294 285.727 86.381C285.727 92.8889 284.51 99.0488 282.076 104.861C279.642 110.673 276.339 115.728 272.166 120.027C267.993 124.327 263.086 127.73 257.445 130.238C251.805 132.746 245.788 134 239.395 134ZM277.614 62.5714V51.8571H267.182V44.7143H277.614V34H284.568V44.7143H295V51.8571H284.568V62.5714H277.614ZM256.286 80.0714C258.025 80.0714 259.503 79.4464 260.72 78.1964C261.937 76.9464 262.545 75.4286 262.545 73.6429C262.545 71.8571 261.937 70.3393 260.72 69.0893C259.503 67.8393 258.025 67.2143 256.286 67.2143C254.548 67.2143 253.07 67.8393 251.853 69.0893C250.636 70.3393 250.027 71.8571 250.027 73.6429C250.027 75.4286 250.636 76.9464 251.853 78.1964C253.07 79.4464 254.548 80.0714 256.286 80.0714ZM222.441 80.0714C224.18 80.0714 225.657 79.4464 226.874 78.1964C228.091 76.9464 228.7 75.4286 228.7 73.6429C228.7 71.8571 228.091 70.3393 226.874 69.0893C225.657 67.8393 224.18 67.2143 222.441 67.2143C220.702 67.2143 219.224 67.8393 218.007 69.0893C216.79 70.3393 216.182 71.8571 216.182 73.6429C216.182 75.4286 216.79 76.9464 218.007 78.1964C219.224 79.4464 220.702 80.0714 222.441 80.0714ZM239.364 112.452C244.464 112.452 249.158 111.044 253.447 108.226C257.735 105.409 260.845 101.579 262.777 96.7381H215.95C217.959 101.579 221.089 105.409 225.339 108.226C229.589 111.044 234.264 112.452 239.364 112.452Z" fill="white"/>
<path d="M42.3823 167.182V189H36.459V167.182H42.3823ZM55.0332 172.636V176.898H44.252V172.636H55.0332ZM46.34 168.716H52.2207V183.737C52.2207 183.964 52.2598 184.156 52.3379 184.312C52.416 184.462 52.5368 184.575 52.7001 184.653C52.8635 184.724 53.073 184.76 53.3287 184.76C53.5062 184.76 53.7122 184.739 53.9466 184.696C54.188 184.653 54.3656 184.618 54.4792 184.589L55.3315 188.723C55.0687 188.801 54.6923 188.897 54.2022 189.011C53.7193 189.124 53.144 189.199 52.4764 189.234C51.127 189.305 49.9941 189.167 49.0779 188.819C48.1618 188.464 47.4728 187.906 47.0112 187.146C46.5495 186.386 46.3258 185.435 46.34 184.291V168.716ZM65.098 189.298C63.3509 189.298 61.8452 188.964 60.581 188.297C59.3239 187.622 58.3544 186.656 57.6726 185.399C56.9979 184.135 56.6605 182.622 56.6605 180.861C56.6605 179.17 57.0014 177.693 57.6832 176.429C58.3651 175.165 59.3274 174.181 60.5703 173.478C61.8132 172.775 63.2798 172.423 64.9702 172.423C66.206 172.423 67.3246 172.615 68.326 172.999C69.3274 173.382 70.1832 173.94 70.8935 174.671C71.6037 175.396 72.1506 176.276 72.5341 177.313C72.9176 178.35 73.1094 179.518 73.1094 180.818V182.182H58.4929V178.943H67.6974C67.6903 178.474 67.5696 178.062 67.3352 177.707C67.108 177.345 66.799 177.065 66.4084 176.866C66.0249 176.66 65.5881 176.557 65.098 176.557C64.6222 176.557 64.1854 176.66 63.7876 176.866C63.3899 177.065 63.0703 177.342 62.8288 177.697C62.5945 178.052 62.4702 178.467 62.456 178.943V182.438C62.456 182.963 62.5661 183.432 62.7862 183.844C63.0064 184.256 63.3224 184.579 63.7344 184.813C64.1463 185.048 64.6435 185.165 65.2259 185.165C65.6307 185.165 66 185.108 66.3338 184.994C66.6747 184.881 66.9659 184.717 67.2074 184.504C67.4489 184.284 67.6264 184.021 67.7401 183.716H73.1094C72.9247 184.852 72.4879 185.839 71.799 186.678C71.1101 187.509 70.1974 188.155 69.0611 188.616C67.9318 189.071 66.6108 189.298 65.098 189.298ZM75.5091 189V172.636H81.0914V175.747H81.2619C81.6028 174.724 82.1852 173.915 83.0091 173.318C83.8329 172.722 84.813 172.423 85.9494 172.423C87.1 172.423 88.0907 172.729 88.9217 173.339C89.7527 173.943 90.2534 174.746 90.4238 175.747H90.5943C90.8713 174.746 91.4608 173.943 92.3627 173.339C93.2647 172.729 94.323 172.423 95.5375 172.423C97.1071 172.423 98.3784 172.928 99.3514 173.936C100.331 174.945 100.822 176.287 100.822 177.963V189H94.9409V179.455C94.9409 178.737 94.7598 178.176 94.3976 177.771C94.0353 177.359 93.5488 177.153 92.938 177.153C92.3343 177.153 91.8549 177.359 91.4998 177.771C91.1518 178.176 90.9778 178.737 90.9778 179.455V189H85.3528V179.455C85.3528 178.737 85.1717 178.176 84.8095 177.771C84.4473 177.359 83.9608 177.153 83.35 177.153C82.9451 177.153 82.5971 177.246 82.3059 177.43C82.0147 177.615 81.7875 177.881 81.6241 178.229C81.4679 178.57 81.3897 178.979 81.3897 179.455V189H75.5091ZM114.258 189.256C113.214 189.256 112.291 189.085 111.488 188.744C110.693 188.396 110.068 187.871 109.613 187.168C109.159 186.464 108.931 185.57 108.931 184.483C108.931 183.588 109.084 182.825 109.39 182.192C109.695 181.553 110.121 181.031 110.668 180.626C111.215 180.222 111.85 179.913 112.575 179.7C113.306 179.487 114.095 179.348 114.94 179.284C115.856 179.213 116.591 179.128 117.145 179.028C117.706 178.922 118.111 178.776 118.36 178.592C118.608 178.4 118.733 178.148 118.733 177.835V177.793C118.733 177.366 118.569 177.04 118.243 176.812C117.916 176.585 117.497 176.472 116.985 176.472C116.424 176.472 115.966 176.596 115.611 176.844C115.263 177.086 115.054 177.459 114.983 177.963H109.571C109.642 176.969 109.958 176.053 110.519 175.214C111.087 174.369 111.914 173.695 113.001 173.19C114.088 172.679 115.444 172.423 117.071 172.423C118.243 172.423 119.294 172.562 120.224 172.839C121.154 173.109 121.946 173.489 122.6 173.979C123.253 174.462 123.75 175.03 124.091 175.683C124.439 176.33 124.613 177.033 124.613 177.793V189H119.116V186.699H118.988C118.662 187.31 118.264 187.803 117.795 188.18C117.333 188.556 116.804 188.83 116.208 189C115.618 189.17 114.968 189.256 114.258 189.256ZM116.176 185.548C116.623 185.548 117.042 185.456 117.433 185.271C117.831 185.087 118.154 184.82 118.402 184.472C118.651 184.124 118.775 183.702 118.775 183.205V181.841C118.619 181.905 118.452 181.965 118.275 182.022C118.104 182.079 117.919 182.132 117.721 182.182C117.529 182.232 117.323 182.278 117.103 182.32C116.89 182.363 116.666 182.402 116.431 182.438C115.977 182.509 115.604 182.626 115.313 182.789C115.029 182.945 114.816 183.141 114.674 183.375C114.539 183.602 114.471 183.858 114.471 184.142C114.471 184.597 114.631 184.945 114.951 185.186C115.27 185.428 115.679 185.548 116.176 185.548ZM133.346 189.213C132.182 189.213 131.109 188.908 130.129 188.297C129.156 187.686 128.375 186.759 127.785 185.516C127.203 184.273 126.912 182.707 126.912 180.818C126.912 178.844 127.217 177.239 127.828 176.003C128.446 174.767 129.241 173.862 130.214 173.286C131.194 172.711 132.224 172.423 133.304 172.423C134.113 172.423 134.824 172.565 135.434 172.849C136.045 173.126 136.557 173.499 136.969 173.968C137.381 174.43 137.693 174.937 137.906 175.491H137.991V167.182H143.872V189H138.034V186.315H137.906C137.679 186.869 137.352 187.366 136.926 187.807C136.507 188.24 135.996 188.585 135.392 188.84C134.795 189.089 134.113 189.213 133.346 189.213ZM135.52 184.696C136.059 184.696 136.521 184.54 136.905 184.227C137.295 183.908 137.594 183.46 137.8 182.885C138.013 182.303 138.119 181.614 138.119 180.818C138.119 180.009 138.013 179.316 137.8 178.741C137.594 178.158 137.295 177.714 136.905 177.409C136.521 177.097 136.059 176.94 135.52 176.94C134.98 176.94 134.518 177.097 134.135 177.409C133.758 177.714 133.467 178.158 133.261 178.741C133.062 179.316 132.963 180.009 132.963 180.818C132.963 181.628 133.062 182.324 133.261 182.906C133.467 183.482 133.758 183.925 134.135 184.238C134.518 184.543 134.98 184.696 135.52 184.696ZM146.759 189V172.636H152.64V189H146.759ZM149.699 170.932C148.904 170.932 148.222 170.669 147.654 170.143C147.086 169.618 146.802 168.986 146.802 168.247C146.802 167.509 147.086 166.876 147.654 166.351C148.222 165.825 148.904 165.562 149.699 165.562C150.502 165.562 151.184 165.825 151.745 166.351C152.313 166.876 152.597 167.509 152.597 168.247C152.597 168.986 152.313 169.618 151.745 170.143C151.184 170.669 150.502 170.932 149.699 170.932ZM163.52 189.298C161.744 189.298 160.224 188.947 158.96 188.244C157.696 187.533 156.726 186.546 156.051 185.282C155.377 184.011 155.039 182.537 155.039 180.861C155.039 179.185 155.377 177.714 156.051 176.45C156.726 175.179 157.696 174.192 158.96 173.489C160.224 172.778 161.744 172.423 163.52 172.423C165.125 172.423 166.513 172.714 167.685 173.297C168.864 173.872 169.777 174.689 170.423 175.747C171.069 176.798 171.396 178.034 171.403 179.455H165.949C165.87 178.595 165.622 177.942 165.203 177.494C164.791 177.04 164.258 176.812 163.605 176.812C163.093 176.812 162.646 176.962 162.262 177.26C161.879 177.551 161.581 177.995 161.368 178.592C161.154 179.181 161.048 179.923 161.048 180.818C161.048 181.713 161.154 182.459 161.368 183.055C161.581 183.645 161.879 184.089 162.262 184.387C162.646 184.678 163.093 184.824 163.605 184.824C164.038 184.824 164.422 184.724 164.755 184.526C165.089 184.32 165.359 184.021 165.565 183.631C165.778 183.233 165.906 182.75 165.949 182.182H171.403C171.382 183.624 171.051 184.881 170.412 185.953C169.773 187.018 168.868 187.842 167.696 188.425C166.531 189.007 165.139 189.298 163.52 189.298ZM173.829 189V172.636H179.71V189H173.829ZM176.77 170.932C175.974 170.932 175.292 170.669 174.724 170.143C174.156 169.618 173.872 168.986 173.872 168.247C173.872 167.509 174.156 166.876 174.724 166.351C175.292 165.825 175.974 165.562 176.77 165.562C177.572 165.562 178.254 165.825 178.815 166.351C179.383 166.876 179.667 167.509 179.667 168.247C179.667 168.986 179.383 169.618 178.815 170.143C178.254 170.669 177.572 170.932 176.77 170.932ZM190.59 189.298C188.814 189.298 187.294 188.947 186.03 188.244C184.766 187.533 183.797 186.546 183.122 185.282C182.447 184.011 182.11 182.537 182.11 180.861C182.11 179.185 182.447 177.714 183.122 176.45C183.797 175.179 184.766 174.192 186.03 173.489C187.294 172.778 188.814 172.423 190.59 172.423C192.365 172.423 193.885 172.778 195.15 173.489C196.414 174.192 197.383 175.179 198.058 176.45C198.733 177.714 199.07 179.185 199.07 180.861C199.07 182.537 198.733 184.011 198.058 185.282C197.383 186.546 196.414 187.533 195.15 188.244C193.885 188.947 192.365 189.298 190.59 189.298ZM190.632 184.952C191.13 184.952 191.559 184.785 191.922 184.451C192.284 184.117 192.564 183.641 192.763 183.023C192.962 182.406 193.061 181.67 193.061 180.818C193.061 179.959 192.962 179.224 192.763 178.613C192.564 177.995 192.284 177.519 191.922 177.185C191.559 176.852 191.13 176.685 190.632 176.685C190.107 176.685 189.656 176.852 189.279 177.185C188.903 177.519 188.615 177.995 188.417 178.613C188.218 179.224 188.118 179.959 188.118 180.818C188.118 181.67 188.218 182.406 188.417 183.023C188.615 183.641 188.903 184.117 189.279 184.451C189.656 184.785 190.107 184.952 190.632 184.952ZM207.337 179.795V189H201.456V172.636H207.039V175.747H207.209C207.564 174.71 208.189 173.897 209.084 173.308C209.986 172.718 211.037 172.423 212.238 172.423C213.395 172.423 214.4 172.69 215.252 173.222C216.112 173.748 216.776 174.472 217.245 175.396C217.721 176.319 217.955 177.374 217.948 178.56V189H212.067V179.795C212.074 178.986 211.868 178.35 211.449 177.888C211.037 177.427 210.462 177.196 209.723 177.196C209.24 177.196 208.818 177.303 208.456 177.516C208.1 177.722 207.827 178.02 207.635 178.411C207.444 178.794 207.344 179.256 207.337 179.795ZM225.411 189.256C224.366 189.256 223.443 189.085 222.641 188.744C221.845 188.396 221.22 187.871 220.766 187.168C220.311 186.464 220.084 185.57 220.084 184.483C220.084 183.588 220.237 182.825 220.542 182.192C220.847 181.553 221.273 181.031 221.82 180.626C222.367 180.222 223.003 179.913 223.727 179.7C224.459 179.487 225.247 179.348 226.092 179.284C227.009 179.213 227.744 179.128 228.298 179.028C228.859 178.922 229.263 178.776 229.512 178.592C229.761 178.4 229.885 178.148 229.885 177.835V177.793C229.885 177.366 229.722 177.04 229.395 176.812C229.068 176.585 228.649 176.472 228.138 176.472C227.577 176.472 227.119 176.596 226.763 176.844C226.415 177.086 226.206 177.459 226.135 177.963H220.723C220.794 176.969 221.11 176.053 221.671 175.214C222.239 174.369 223.067 173.695 224.153 173.19C225.24 172.679 226.597 172.423 228.223 172.423C229.395 172.423 230.446 172.562 231.376 172.839C232.307 173.109 233.099 173.489 233.752 173.979C234.406 174.462 234.903 175.03 235.244 175.683C235.592 176.33 235.766 177.033 235.766 177.793V189H230.268V186.699H230.141C229.814 187.31 229.416 187.803 228.947 188.18C228.486 188.556 227.957 188.83 227.36 189C226.771 189.17 226.121 189.256 225.411 189.256ZM227.328 185.548C227.776 185.548 228.195 185.456 228.585 185.271C228.983 185.087 229.306 184.82 229.555 184.472C229.803 184.124 229.928 183.702 229.928 183.205V181.841C229.771 181.905 229.604 181.965 229.427 182.022C229.256 182.079 229.072 182.132 228.873 182.182C228.681 182.232 228.475 182.278 228.255 182.32C228.042 182.363 227.818 182.402 227.584 182.438C227.129 182.509 226.756 182.626 226.465 182.789C226.181 182.945 225.968 183.141 225.826 183.375C225.691 183.602 225.624 183.858 225.624 184.142C225.624 184.597 225.783 184.945 226.103 185.186C226.423 185.428 226.831 185.548 227.328 185.548ZM244.499 189.213C243.334 189.213 242.262 188.908 241.281 188.297C240.308 187.686 239.527 186.759 238.938 185.516C238.355 184.273 238.064 182.707 238.064 180.818C238.064 178.844 238.369 177.239 238.98 176.003C239.598 174.767 240.394 173.862 241.367 173.286C242.347 172.711 243.377 172.423 244.456 172.423C245.266 172.423 245.976 172.565 246.587 172.849C247.198 173.126 247.709 173.499 248.121 173.968C248.533 174.43 248.845 174.937 249.058 175.491H249.144V167.182H255.024V189H249.186V186.315H249.058C248.831 186.869 248.504 187.366 248.078 187.807C247.659 188.24 247.148 188.585 246.544 188.84C245.948 189.089 245.266 189.213 244.499 189.213ZM246.672 184.696C247.212 184.696 247.673 184.54 248.057 184.227C248.448 183.908 248.746 183.46 248.952 182.885C249.165 182.303 249.271 181.614 249.271 180.818C249.271 180.009 249.165 179.316 248.952 178.741C248.746 178.158 248.448 177.714 248.057 177.409C247.673 177.097 247.212 176.94 246.672 176.94C246.132 176.94 245.671 177.097 245.287 177.409C244.911 177.714 244.619 178.158 244.414 178.741C244.215 179.316 244.115 180.009 244.115 180.818C244.115 181.628 244.215 182.324 244.414 182.906C244.619 183.482 244.911 183.925 245.287 184.238C245.671 184.543 246.132 184.696 246.672 184.696ZM265.795 189.298C264.019 189.298 262.499 188.947 261.235 188.244C259.971 187.533 259.002 186.546 258.327 185.282C257.652 184.011 257.315 182.537 257.315 180.861C257.315 179.185 257.652 177.714 258.327 176.45C259.002 175.179 259.971 174.192 261.235 173.489C262.499 172.778 264.019 172.423 265.795 172.423C267.57 172.423 269.09 172.778 270.355 173.489C271.619 174.192 272.588 175.179 273.263 176.45C273.938 177.714 274.275 179.185 274.275 180.861C274.275 182.537 273.938 184.011 273.263 185.282C272.588 186.546 271.619 187.533 270.355 188.244C269.09 188.947 267.57 189.298 265.795 189.298ZM265.838 184.952C266.335 184.952 266.764 184.785 267.127 184.451C267.489 184.117 267.769 183.641 267.968 183.023C268.167 182.406 268.267 181.67 268.267 180.818C268.267 179.959 268.167 179.224 267.968 178.613C267.769 177.995 267.489 177.519 267.127 177.185C266.764 176.852 266.335 176.685 265.838 176.685C265.312 176.685 264.861 176.852 264.485 177.185C264.108 177.519 263.82 177.995 263.622 178.613C263.423 179.224 263.323 179.959 263.323 180.818C263.323 181.67 263.423 182.406 263.622 183.023C263.82 183.641 264.108 184.117 264.485 184.451C264.861 184.785 265.312 184.952 265.838 184.952ZM287.198 189.256C286.154 189.256 285.23 189.085 284.428 188.744C283.632 188.396 283.007 187.871 282.553 187.168C282.098 186.464 281.871 185.57 281.871 184.483C281.871 183.588 282.024 182.825 282.329 182.192C282.634 181.553 283.061 181.031 283.607 180.626C284.154 180.222 284.79 179.913 285.514 179.7C286.246 179.487 287.034 179.348 287.879 179.284C288.796 179.213 289.531 179.128 290.085 179.028C290.646 178.922 291.051 178.776 291.299 178.592C291.548 178.4 291.672 178.148 291.672 177.835V177.793C291.672 177.366 291.509 177.04 291.182 176.812C290.855 176.585 290.436 176.472 289.925 176.472C289.364 176.472 288.906 176.596 288.551 176.844C288.203 177.086 287.993 177.459 287.922 177.963H282.51C282.581 176.969 282.897 176.053 283.458 175.214C284.026 174.369 284.854 173.695 285.941 173.19C287.027 172.679 288.384 172.423 290.01 172.423C291.182 172.423 292.233 172.562 293.164 172.839C294.094 173.109 294.886 173.489 295.539 173.979C296.193 174.462 296.69 175.03 297.031 175.683C297.379 176.33 297.553 177.033 297.553 177.793V189H292.056V186.699H291.928C291.601 187.31 291.203 187.803 290.735 188.18C290.273 188.556 289.744 188.83 289.147 189C288.558 189.17 287.908 189.256 287.198 189.256ZM289.115 185.548C289.563 185.548 289.982 185.456 290.372 185.271C290.77 185.087 291.093 184.82 291.342 184.472C291.59 184.124 291.715 183.702 291.715 183.205V181.841C291.558 181.905 291.392 181.965 291.214 182.022C291.044 182.079 290.859 182.132 290.66 182.182C290.468 182.232 290.262 182.278 290.042 182.32C289.829 182.363 289.605 182.402 289.371 182.438C288.916 182.509 288.544 182.626 288.252 182.789C287.968 182.945 287.755 183.141 287.613 183.375C287.478 183.602 287.411 183.858 287.411 184.142C287.411 184.597 287.57 184.945 287.89 185.186C288.21 185.428 288.618 185.548 289.115 185.548ZM308.246 189.298C306.471 189.298 304.951 188.947 303.686 188.244C302.422 187.533 301.453 186.546 300.778 185.282C300.103 184.011 299.766 182.537 299.766 180.861C299.766 179.185 300.103 177.714 300.778 176.45C301.453 175.179 302.422 174.192 303.686 173.489C304.951 172.778 306.471 172.423 308.246 172.423C310.022 172.423 311.542 172.778 312.806 173.489C314.07 174.192 315.039 175.179 315.714 176.45C316.389 177.714 316.726 179.185 316.726 180.861C316.726 182.537 316.389 184.011 315.714 185.282C315.039 186.546 314.07 187.533 312.806 188.244C311.542 188.947 310.022 189.298 308.246 189.298ZM308.289 184.952C308.786 184.952 309.216 184.785 309.578 184.451C309.94 184.117 310.221 183.641 310.419 183.023C310.618 182.406 310.718 181.67 310.718 180.818C310.718 179.959 310.618 179.224 310.419 178.613C310.221 177.995 309.94 177.519 309.578 177.185C309.216 176.852 308.786 176.685 308.289 176.685C307.763 176.685 307.312 176.852 306.936 177.185C306.559 177.519 306.272 177.995 306.073 178.613C305.874 179.224 305.775 179.959 305.775 180.818C305.775 181.67 305.874 182.406 306.073 183.023C306.272 183.641 306.559 184.117 306.936 184.451C307.312 184.785 307.763 184.952 308.289 184.952ZM332.973 189.298C331.197 189.298 329.677 188.947 328.413 188.244C327.149 187.533 326.179 186.546 325.505 185.282C324.83 184.011 324.493 182.537 324.493 180.861C324.493 179.185 324.83 177.714 325.505 176.45C326.179 175.179 327.149 174.192 328.413 173.489C329.677 172.778 331.197 172.423 332.973 172.423C334.578 172.423 335.966 172.714 337.138 173.297C338.317 173.872 339.23 174.689 339.876 175.747C340.522 176.798 340.849 178.034 340.856 179.455H335.402C335.324 178.595 335.075 177.942 334.656 177.494C334.244 177.04 333.711 176.812 333.058 176.812C332.547 176.812 332.099 176.962 331.716 177.26C331.332 177.551 331.034 177.995 330.821 178.592C330.608 179.181 330.501 179.923 330.501 180.818C330.501 181.713 330.608 182.459 330.821 183.055C331.034 183.645 331.332 184.089 331.716 184.387C332.099 184.678 332.547 184.824 333.058 184.824C333.491 184.824 333.875 184.724 334.208 184.526C334.542 184.32 334.812 184.021 335.018 183.631C335.231 183.233 335.359 182.75 335.402 182.182H340.856C340.835 183.624 340.505 184.881 339.865 185.953C339.226 187.018 338.321 187.842 337.149 188.425C335.984 189.007 334.592 189.298 332.973 189.298ZM347.842 189.256C346.798 189.256 345.875 189.085 345.072 188.744C344.277 188.396 343.652 187.871 343.197 187.168C342.743 186.464 342.515 185.57 342.515 184.483C342.515 183.588 342.668 182.825 342.974 182.192C343.279 181.553 343.705 181.031 344.252 180.626C344.799 180.222 345.434 179.913 346.159 179.7C346.89 179.487 347.679 179.348 348.524 179.284C349.44 179.213 350.175 179.128 350.729 179.028C351.29 178.922 351.695 178.776 351.944 178.592C352.192 178.4 352.317 178.148 352.317 177.835V177.793C352.317 177.366 352.153 177.04 351.827 176.812C351.5 176.585 351.081 176.472 350.569 176.472C350.008 176.472 349.55 176.596 349.195 176.844C348.847 177.086 348.638 177.459 348.567 177.963H343.155C343.226 176.969 343.542 176.053 344.103 175.214C344.671 174.369 345.498 173.695 346.585 173.19C347.672 172.679 349.028 172.423 350.655 172.423C351.827 172.423 352.878 172.562 353.808 172.839C354.738 173.109 355.53 173.489 356.184 173.979C356.837 174.462 357.334 175.03 357.675 175.683C358.023 176.33 358.197 177.033 358.197 177.793V189H352.7V186.699H352.572C352.246 187.31 351.848 187.803 351.379 188.18C350.917 188.556 350.388 188.83 349.792 189C349.202 189.17 348.552 189.256 347.842 189.256ZM349.76 185.548C350.207 185.548 350.626 185.456 351.017 185.271C351.415 185.087 351.738 184.82 351.986 184.472C352.235 184.124 352.359 183.702 352.359 183.205V181.841C352.203 181.905 352.036 181.965 351.858 182.022C351.688 182.079 351.503 182.132 351.305 182.182C351.113 182.232 350.907 182.278 350.687 182.32C350.474 182.363 350.25 182.402 350.015 182.438C349.561 182.509 349.188 182.626 348.897 182.789C348.613 182.945 348.4 183.141 348.258 183.375C348.123 183.602 348.055 183.858 348.055 184.142C348.055 184.597 348.215 184.945 348.535 185.186C348.854 185.428 349.263 185.548 349.76 185.548ZM361.007 189V172.636H366.717V175.747H366.888C367.186 174.597 367.658 173.755 368.305 173.222C368.958 172.69 369.722 172.423 370.595 172.423C370.851 172.423 371.103 172.445 371.352 172.487C371.607 172.523 371.852 172.576 372.087 172.647V177.665C371.795 177.565 371.437 177.491 371.011 177.441C370.585 177.391 370.219 177.366 369.913 177.366C369.338 177.366 368.82 177.498 368.358 177.761C367.903 178.016 367.545 178.379 367.282 178.847C367.019 179.309 366.888 179.852 366.888 180.477V189H361.007ZM374.015 189V172.636H379.725V175.747H379.896C380.194 174.597 380.666 173.755 381.312 173.222C381.966 172.69 382.729 172.423 383.603 172.423C383.859 172.423 384.111 172.445 384.359 172.487C384.615 172.523 384.86 172.576 385.094 172.647V177.665C384.803 177.565 384.445 177.491 384.018 177.441C383.592 177.391 383.227 177.366 382.921 177.366C382.346 177.366 381.827 177.498 381.366 177.761C380.911 178.016 380.553 178.379 380.29 178.847C380.027 179.309 379.896 179.852 379.896 180.477V189H374.015ZM387.023 189V172.636H392.903V189H387.023ZM389.963 170.932C389.168 170.932 388.486 170.669 387.918 170.143C387.349 169.618 387.065 168.986 387.065 168.247C387.065 167.509 387.349 166.876 387.918 166.351C388.486 165.825 389.168 165.562 389.963 165.562C390.766 165.562 391.447 165.825 392.009 166.351C392.577 166.876 392.861 167.509 392.861 168.247C392.861 168.986 392.577 169.618 392.009 170.143C391.447 170.669 390.766 170.932 389.963 170.932ZM401.78 179.795V189H395.9V172.636H401.482V175.747H401.653C402.008 174.71 402.633 173.897 403.528 173.308C404.43 172.718 405.481 172.423 406.681 172.423C407.839 172.423 408.844 172.69 409.696 173.222C410.555 173.748 411.219 174.472 411.688 175.396C412.164 176.319 412.398 177.374 412.391 178.56V189H406.51V179.795C406.518 178.986 406.312 178.35 405.893 177.888C405.481 177.427 404.905 177.196 404.167 177.196C403.684 177.196 403.261 177.303 402.899 177.516C402.544 177.722 402.27 178.02 402.079 178.411C401.887 178.794 401.787 179.256 401.78 179.795ZM421.175 179.795V189H415.294V167.182H420.962V175.747H421.132C421.502 174.703 422.116 173.89 422.975 173.308C423.835 172.718 424.868 172.423 426.075 172.423C427.233 172.423 428.238 172.686 429.09 173.212C429.95 173.737 430.614 174.462 431.083 175.385C431.558 176.308 431.793 177.366 431.786 178.56V189H425.905V179.795C425.912 178.986 425.71 178.35 425.298 177.888C424.893 177.427 424.314 177.196 423.561 177.196C423.085 177.196 422.666 177.303 422.304 177.516C421.949 177.722 421.672 178.02 421.473 178.411C421.281 178.794 421.182 179.256 421.175 179.795ZM442.572 189.298C440.797 189.298 439.277 188.947 438.013 188.244C436.748 187.533 435.779 186.546 435.104 185.282C434.43 184.011 434.092 182.537 434.092 180.861C434.092 179.185 434.43 177.714 435.104 176.45C435.779 175.179 436.748 174.192 438.013 173.489C439.277 172.778 440.797 172.423 442.572 172.423C444.348 172.423 445.868 172.778 447.132 173.489C448.396 174.192 449.366 175.179 450.04 176.45C450.715 177.714 451.052 179.185 451.052 180.861C451.052 182.537 450.715 184.011 450.04 185.282C449.366 186.546 448.396 187.533 447.132 188.244C445.868 188.947 444.348 189.298 442.572 189.298ZM442.615 184.952C443.112 184.952 443.542 184.785 443.904 184.451C444.266 184.117 444.547 183.641 444.746 183.023C444.944 182.406 445.044 181.67 445.044 180.818C445.044 179.959 444.944 179.224 444.746 178.613C444.547 177.995 444.266 177.519 443.904 177.185C443.542 176.852 443.112 176.685 442.615 176.685C442.089 176.685 441.638 176.852 441.262 177.185C440.885 177.519 440.598 177.995 440.399 178.613C440.2 179.224 440.101 179.959 440.101 180.818C440.101 181.67 440.2 182.406 440.399 183.023C440.598 183.641 440.885 184.117 441.262 184.451C441.638 184.785 442.089 184.952 442.615 184.952Z" fill="white"/>
</g>
<defs>
<filter id="filter0_d_568_115" x="0.858986" y="0.400002" width="499.793" height="240.541" filterUnits="userSpaceOnUse" color-interpolation-filters="sRGB">
<feFlood flood-opacity="0" result="BackgroundImageFix"/>
<feColorMatrix in="SourceAlpha" type="matrix" values="0 0 0 0 0 0 0 0 0 0 0 0 0 0 0 0 0 0 127 0" result="hardAlpha"/>
<feMorphology radius="4" operator="dilate" in="SourceAlpha" result="effect1_dropShadow_568_115"/>
<feOffset dx="7" dy="9"/>
<feGaussianBlur stdDeviation="19.3"/>
<feComposite in2="hardAlpha" operator="out"/>
<feColorMatrix type="matrix" values="0 0 0 0 0 0 0 0 0 0 0 0 0 0 0 0 0 0 1 0"/>
<feBlend mode="normal" in2="BackgroundImageFix" result="effect1_dropShadow_568_115"/>
<feBlend mode="normal" in="SourceGraphic" in2="effect1_dropShadow_568_115" result="shape"/>
</filter>
</defs>
</svg>
