<svg width="377" height="163" viewBox="0 0 377 163" fill="none" xmlns="http://www.w3.org/2000/svg">
<path d="M206.5 45C208.583 45 210.354 44.2708 211.812 42.8125C213.271 41.3542 214 39.5833 214 37.5C214 35.4167 213.271 33.6458 211.812 32.1875C210.354 30.7292 208.583 30 206.5 30C204.417 30 202.646 30.7292 201.188 32.1875C199.729 33.6458 199 35.4167 199 37.5C199 39.5833 199.729 41.3542 201.188 42.8125C202.646 44.2708 204.417 45 206.5 45ZM171.5 45C173.583 45 175.354 44.2708 176.812 42.8125C178.271 41.3542 179 39.5833 179 37.5C179 35.4167 178.271 33.6458 176.812 32.1875C175.354 30.7292 173.583 30 171.5 30C169.417 30 167.646 30.7292 166.188 32.1875C164.729 33.6458 164 35.4167 164 37.5C164 39.5833 164.729 41.3542 166.188 42.8125C167.646 44.2708 169.417 45 171.5 45ZM189 57.5C183.333 57.5 178.188 59.1042 173.562 62.3125C168.938 65.5208 165.583 69.75 163.5 75H171.75C173.583 71.9167 176.021 69.4792 179.062 67.6875C182.104 65.8958 185.417 65 189 65C192.583 65 195.896 65.8958 198.938 67.6875C201.979 69.4792 204.417 71.9167 206.25 75H214.5C212.417 69.75 209.062 65.5208 204.438 62.3125C199.812 59.1042 194.667 57.5 189 57.5ZM189 100C182.083 100 175.583 98.6875 169.5 96.0625C163.417 93.4375 158.125 89.875 153.625 85.375C149.125 80.875 145.562 75.5833 142.938 69.5C140.312 63.4167 139 56.9167 139 50C139 43.0833 140.312 36.5833 142.938 30.5C145.562 24.4167 149.125 19.125 153.625 14.625C158.125 10.125 163.417 6.5625 169.5 3.9375C175.583 1.3125 182.083 0 189 0C195.917 0 202.417 1.3125 208.5 3.9375C214.583 6.5625 219.875 10.125 224.375 14.625C228.875 19.125 232.438 24.4167 235.062 30.5C237.688 36.5833 239 43.0833 239 50C239 56.9167 237.688 63.4167 235.062 69.5C232.438 75.5833 228.875 80.875 224.375 85.375C219.875 89.875 214.583 93.4375 208.5 96.0625C202.417 98.6875 195.917 100 189 100ZM189 90C200.167 90 209.625 86.125 217.375 78.375C225.125 70.625 229 61.1667 229 50C229 38.8333 225.125 29.375 217.375 21.625C209.625 13.875 200.167 10 189 10C177.833 10 168.375 13.875 160.625 21.625C152.875 29.375 149 38.8333 149 50C149 61.1667 152.875 70.625 160.625 78.375C168.375 86.125 177.833 90 189 90Z" fill="white"/>
<path d="M19.7021 140.182V162H14.7589L6.87536 150.537H6.74751V162H0.824219V140.182H5.85263L13.6083 151.602H13.7788V140.182H19.7021ZM30.43 162.298C28.6829 162.298 27.1772 161.964 25.913 161.297C24.6559 160.622 23.6864 159.656 23.0046 158.399C22.3299 157.135 21.9925 155.622 21.9925 153.861C21.9925 152.17 22.3335 150.693 23.0153 149.429C23.6971 148.165 24.6594 147.181 25.9023 146.478C27.1452 145.775 28.6119 145.423 30.3022 145.423C31.538 145.423 32.6566 145.615 33.658 145.999C34.6594 146.382 35.5153 146.94 36.2255 147.671C36.9357 148.396 37.4826 149.276 37.8661 150.313C38.2496 151.35 38.4414 152.518 38.4414 153.818V155.182H23.8249V151.943H33.0295C33.0224 151.474 32.9016 151.062 32.6673 150.707C32.44 150.345 32.131 150.065 31.7404 149.866C31.3569 149.66 30.9201 149.557 30.43 149.557C29.9542 149.557 29.5174 149.66 29.1197 149.866C28.7219 150.065 28.4023 150.342 28.1609 150.697C27.9265 151.052 27.8022 151.467 27.788 151.943V155.438C27.788 155.963 27.8981 156.432 28.1183 156.844C28.3384 157.256 28.6545 157.579 29.0664 157.813C29.4783 158.048 29.9755 158.165 30.5579 158.165C30.9627 158.165 31.332 158.108 31.6658 157.994C32.0067 157.881 32.2979 157.717 32.5394 157.504C32.7809 157.284 32.9585 157.021 33.0721 156.716H38.4414C38.2567 157.852 37.82 158.839 37.131 159.678C36.4421 160.509 35.5295 161.155 34.3931 161.616C33.2638 162.071 31.9428 162.298 30.43 162.298ZM46.7218 152.795V162H40.8411V145.636H46.4235V148.747H46.5939C46.949 147.71 47.574 146.897 48.4689 146.308C49.3709 145.718 50.4221 145.423 51.6223 145.423C52.78 145.423 53.785 145.69 54.6373 146.222C55.4966 146.748 56.1607 147.472 56.6294 148.396C57.1053 149.319 57.3397 150.374 57.3326 151.56V162H51.4519V152.795C51.459 151.986 51.253 151.35 50.834 150.888C50.4221 150.427 49.8468 150.196 49.1081 150.196C48.6252 150.196 48.2026 150.303 47.8404 150.516C47.4853 150.722 47.2118 151.02 47.0201 151.411C46.8283 151.794 46.7289 152.256 46.7218 152.795ZM66.1163 152.795V162H60.2356V140.182H65.9032V148.747H66.0737C66.443 147.703 67.0574 146.89 67.9167 146.308C68.7761 145.718 69.8095 145.423 71.0169 145.423C72.1745 145.423 73.1795 145.686 74.0318 146.212C74.8912 146.737 75.5552 147.462 76.024 148.385C76.4998 149.308 76.7342 150.366 76.7271 151.56V162H70.8464V152.795C70.8535 151.986 70.6511 151.35 70.2392 150.888C69.8343 150.427 69.2555 150.196 68.5027 150.196C68.0268 150.196 67.6078 150.303 67.2456 150.516C66.8904 150.722 66.6135 151.02 66.4146 151.411C66.2228 151.794 66.1234 152.256 66.1163 152.795ZM90.2409 154.841V145.636H96.1216V162H90.5392V158.889H90.3688C90.0137 159.933 89.3922 160.75 88.5044 161.339C87.6167 161.922 86.562 162.213 85.3404 162.213C84.1969 162.213 83.1955 161.95 82.3361 161.425C81.4838 160.899 80.8198 160.175 80.3439 159.251C79.8752 158.328 79.6373 157.27 79.6301 156.077V145.636H85.5108V154.841C85.5179 155.651 85.7239 156.286 86.1287 156.748C86.5407 157.21 87.1159 157.44 87.8546 157.44C88.3446 157.44 88.7672 157.337 89.1223 157.131C89.4846 156.918 89.7615 156.62 89.9533 156.237C90.1522 155.846 90.248 155.381 90.2409 154.841ZM99.1126 162V145.636H104.695V148.747H104.865C105.206 147.724 105.789 146.915 106.613 146.318C107.436 145.722 108.417 145.423 109.553 145.423C110.703 145.423 111.694 145.729 112.525 146.339C113.356 146.943 113.857 147.746 114.027 148.747H114.198C114.475 147.746 115.064 146.943 115.966 146.339C116.868 145.729 117.926 145.423 119.141 145.423C120.711 145.423 121.982 145.928 122.955 146.936C123.935 147.945 124.425 149.287 124.425 150.963V162H118.544V152.455C118.544 151.737 118.363 151.176 118.001 150.771C117.639 150.359 117.152 150.153 116.542 150.153C115.938 150.153 115.458 150.359 115.103 150.771C114.755 151.176 114.581 151.737 114.581 152.455V162H108.956V152.455C108.956 151.737 108.775 151.176 108.413 150.771C108.051 150.359 107.564 150.153 106.953 150.153C106.549 150.153 106.201 150.246 105.909 150.43C105.618 150.615 105.391 150.881 105.228 151.229C105.071 151.57 104.993 151.979 104.993 152.455V162H99.1126ZM133.302 162V145.636H139.183V162H133.302ZM136.242 143.932C135.447 143.932 134.765 143.669 134.197 143.143C133.629 142.618 133.345 141.986 133.345 141.247C133.345 140.509 133.629 139.876 134.197 139.351C134.765 138.825 135.447 138.562 136.242 138.562C137.045 138.562 137.727 138.825 138.288 139.351C138.856 139.876 139.14 140.509 139.14 141.247C139.14 141.986 138.856 142.618 138.288 143.143C137.727 143.669 137.045 143.932 136.242 143.932ZM151.938 145.636V149.898H141.156V145.636H151.938ZM143.244 141.716H149.125V156.737C149.125 156.964 149.164 157.156 149.242 157.312C149.32 157.462 149.441 157.575 149.604 157.653C149.768 157.724 149.977 157.76 150.233 157.76C150.411 157.76 150.616 157.739 150.851 157.696C151.092 157.653 151.27 157.618 151.384 157.589L152.236 161.723C151.973 161.801 151.597 161.897 151.107 162.011C150.624 162.124 150.048 162.199 149.381 162.234C148.031 162.305 146.898 162.167 145.982 161.819C145.066 161.464 144.377 160.906 143.915 160.146C143.454 159.386 143.23 158.435 143.244 157.291V141.716ZM162.002 162.298C160.255 162.298 158.749 161.964 157.485 161.297C156.228 160.622 155.259 159.656 154.577 158.399C153.902 157.135 153.565 155.622 153.565 153.861C153.565 152.17 153.906 150.693 154.588 149.429C155.269 148.165 156.232 147.181 157.475 146.478C158.718 145.775 160.184 145.423 161.874 145.423C163.11 145.423 164.229 145.615 165.23 145.999C166.232 146.382 167.088 146.94 167.798 147.671C168.508 148.396 169.055 149.276 169.438 150.313C169.822 151.35 170.014 152.518 170.014 153.818V155.182H155.397V151.943H164.602C164.595 151.474 164.474 151.062 164.24 150.707C164.012 150.345 163.703 150.065 163.313 149.866C162.929 149.66 162.492 149.557 162.002 149.557C161.526 149.557 161.09 149.66 160.692 149.866C160.294 150.065 159.975 150.342 159.733 150.697C159.499 151.052 159.374 151.467 159.36 151.943V155.438C159.36 155.963 159.47 156.432 159.691 156.844C159.911 157.256 160.227 157.579 160.639 157.813C161.051 158.048 161.548 158.165 162.13 158.165C162.535 158.165 162.904 158.108 163.238 157.994C163.579 157.881 163.87 157.717 164.112 157.504C164.353 157.284 164.531 157.021 164.644 156.716H170.014C169.829 157.852 169.392 158.839 168.703 159.678C168.014 160.509 167.102 161.155 165.965 161.616C164.836 162.071 163.515 162.298 162.002 162.298ZM172.413 162V145.636H177.996V148.747H178.166C178.507 147.724 179.089 146.915 179.913 146.318C180.737 145.722 181.717 145.423 182.854 145.423C184.004 145.423 184.995 145.729 185.826 146.339C186.657 146.943 187.158 147.746 187.328 148.747H187.499C187.776 147.746 188.365 146.943 189.267 146.339C190.169 145.729 191.227 145.423 192.442 145.423C194.011 145.423 195.283 145.928 196.256 146.936C197.236 147.945 197.726 149.287 197.726 150.963V162H191.845V152.455C191.845 151.737 191.664 151.176 191.302 150.771C190.94 150.359 190.453 150.153 189.842 150.153C189.239 150.153 188.759 150.359 188.404 150.771C188.056 151.176 187.882 151.737 187.882 152.455V162H182.257V152.455C182.257 151.737 182.076 151.176 181.714 150.771C181.352 150.359 180.865 150.153 180.254 150.153C179.849 150.153 179.501 150.246 179.21 150.43C178.919 150.615 178.692 150.881 178.528 151.229C178.372 151.57 178.294 151.979 178.294 152.455V162H172.413ZM212.483 152.795V162H206.603V145.636H212.185V148.747H212.356C212.711 147.71 213.336 146.897 214.231 146.308C215.133 145.718 216.184 145.423 217.384 145.423C218.542 145.423 219.547 145.69 220.399 146.222C221.258 146.748 221.922 147.472 222.391 148.396C222.867 149.319 223.101 150.374 223.094 151.56V162H217.214V152.795C217.221 151.986 217.015 151.35 216.596 150.888C216.184 150.427 215.608 150.196 214.87 150.196C214.387 150.196 213.964 150.303 213.602 150.516C213.247 150.722 212.974 151.02 212.782 151.411C212.59 151.794 212.491 152.256 212.483 152.795ZM233.881 162.298C232.105 162.298 230.585 161.947 229.321 161.244C228.057 160.533 227.088 159.546 226.413 158.282C225.738 157.011 225.401 155.537 225.401 153.861C225.401 152.185 225.738 150.714 226.413 149.45C227.088 148.179 228.057 147.192 229.321 146.489C230.585 145.778 232.105 145.423 233.881 145.423C235.656 145.423 237.176 145.778 238.441 146.489C239.705 147.192 240.674 148.179 241.349 149.45C242.024 150.714 242.361 152.185 242.361 153.861C242.361 155.537 242.024 157.011 241.349 158.282C240.674 159.546 239.705 160.533 238.441 161.244C237.176 161.947 235.656 162.298 233.881 162.298ZM233.923 157.952C234.421 157.952 234.85 157.785 235.213 157.451C235.575 157.117 235.855 156.641 236.054 156.023C236.253 155.406 236.352 154.67 236.352 153.818C236.352 152.959 236.253 152.224 236.054 151.613C235.855 150.995 235.575 150.519 235.213 150.185C234.85 149.852 234.421 149.685 233.923 149.685C233.398 149.685 232.947 149.852 232.57 150.185C232.194 150.519 231.906 150.995 231.708 151.613C231.509 152.224 231.409 152.959 231.409 153.818C231.409 154.67 231.509 155.406 231.708 156.023C231.906 156.641 232.194 157.117 232.57 157.451C232.947 157.785 233.398 157.952 233.923 157.952ZM258.607 162.298C256.832 162.298 255.312 161.947 254.048 161.244C252.784 160.533 251.814 159.546 251.139 158.282C250.465 157.011 250.127 155.537 250.127 153.861C250.127 152.185 250.465 150.714 251.139 149.45C251.814 148.179 252.784 147.192 254.048 146.489C255.312 145.778 256.832 145.423 258.607 145.423C260.213 145.423 261.601 145.714 262.773 146.297C263.952 146.872 264.865 147.689 265.511 148.747C266.157 149.798 266.484 151.034 266.491 152.455H261.036C260.958 151.595 260.71 150.942 260.291 150.494C259.879 150.04 259.346 149.812 258.693 149.812C258.181 149.812 257.734 149.962 257.35 150.26C256.967 150.551 256.669 150.995 256.455 151.592C256.242 152.181 256.136 152.923 256.136 153.818C256.136 154.713 256.242 155.459 256.455 156.055C256.669 156.645 256.967 157.089 257.35 157.387C257.734 157.678 258.181 157.824 258.693 157.824C259.126 157.824 259.509 157.724 259.843 157.526C260.177 157.32 260.447 157.021 260.653 156.631C260.866 156.233 260.994 155.75 261.036 155.182H266.491C266.47 156.624 266.139 157.881 265.5 158.953C264.861 160.018 263.955 160.842 262.784 161.425C261.619 162.007 260.227 162.298 258.607 162.298ZM273.477 162.256C272.433 162.256 271.51 162.085 270.707 161.744C269.912 161.396 269.287 160.871 268.832 160.168C268.377 159.464 268.15 158.57 268.15 157.483C268.15 156.588 268.303 155.825 268.608 155.192C268.914 154.553 269.34 154.031 269.887 153.626C270.434 153.222 271.069 152.913 271.794 152.7C272.525 152.487 273.314 152.348 274.159 152.284C275.075 152.213 275.81 152.128 276.364 152.028C276.925 151.922 277.33 151.776 277.578 151.592C277.827 151.4 277.951 151.148 277.951 150.835V150.793C277.951 150.366 277.788 150.04 277.461 149.812C277.135 149.585 276.716 149.472 276.204 149.472C275.643 149.472 275.185 149.596 274.83 149.844C274.482 150.086 274.272 150.459 274.201 150.963H268.789C268.86 149.969 269.176 149.053 269.738 148.214C270.306 147.369 271.133 146.695 272.22 146.19C273.306 145.679 274.663 145.423 276.289 145.423C277.461 145.423 278.512 145.562 279.443 145.839C280.373 146.109 281.165 146.489 281.819 146.979C282.472 147.462 282.969 148.03 283.31 148.683C283.658 149.33 283.832 150.033 283.832 150.793V162H278.335V159.699H278.207C277.88 160.31 277.483 160.803 277.014 161.18C276.552 161.556 276.023 161.83 275.426 162C274.837 162.17 274.187 162.256 273.477 162.256ZM275.395 158.548C275.842 158.548 276.261 158.456 276.652 158.271C277.049 158.087 277.373 157.82 277.621 157.472C277.87 157.124 277.994 156.702 277.994 156.205V154.841C277.838 154.905 277.671 154.965 277.493 155.022C277.323 155.079 277.138 155.132 276.939 155.182C276.748 155.232 276.542 155.278 276.321 155.32C276.108 155.363 275.885 155.402 275.65 155.438C275.196 155.509 274.823 155.626 274.532 155.789C274.248 155.945 274.034 156.141 273.892 156.375C273.757 156.602 273.69 156.858 273.69 157.142C273.69 157.597 273.85 157.945 274.169 158.186C274.489 158.428 274.897 158.548 275.395 158.548ZM286.642 162V145.636H292.352V148.747H292.523C292.821 147.597 293.293 146.755 293.939 146.222C294.593 145.69 295.356 145.423 296.23 145.423C296.486 145.423 296.738 145.445 296.986 145.487C297.242 145.523 297.487 145.576 297.721 145.647V150.665C297.43 150.565 297.072 150.491 296.645 150.441C296.219 150.391 295.854 150.366 295.548 150.366C294.973 150.366 294.454 150.498 293.993 150.761C293.538 151.016 293.18 151.379 292.917 151.847C292.654 152.309 292.523 152.852 292.523 153.477V162H286.642ZM299.65 162V145.636H305.36V148.747H305.53C305.829 147.597 306.301 146.755 306.947 146.222C307.601 145.69 308.364 145.423 309.238 145.423C309.493 145.423 309.746 145.445 309.994 145.487C310.25 145.523 310.495 145.576 310.729 145.647V150.665C310.438 150.565 310.079 150.491 309.653 150.441C309.227 150.391 308.861 150.366 308.556 150.366C307.981 150.366 307.462 150.498 307.001 150.761C306.546 151.016 306.187 151.379 305.925 151.847C305.662 152.309 305.53 152.852 305.53 153.477V162H299.65ZM312.657 162V145.636H318.538V162H312.657ZM315.598 143.932C314.802 143.932 314.121 143.669 313.552 143.143C312.984 142.618 312.7 141.986 312.7 141.247C312.7 140.509 312.984 139.876 313.552 139.351C314.121 138.825 314.802 138.562 315.598 138.562C316.4 138.562 317.082 138.825 317.643 139.351C318.211 139.876 318.496 140.509 318.496 141.247C318.496 141.986 318.211 142.618 317.643 143.143C317.082 143.669 316.4 143.932 315.598 143.932ZM327.415 152.795V162H321.534V145.636H327.117V148.747H327.287C327.642 147.71 328.267 146.897 329.162 146.308C330.064 145.718 331.115 145.423 332.316 145.423C333.473 145.423 334.478 145.69 335.331 146.222C336.19 146.748 336.854 147.472 337.323 148.396C337.799 149.319 338.033 150.374 338.026 151.56V162H332.145V152.795C332.152 151.986 331.946 151.35 331.527 150.888C331.115 150.427 330.54 150.196 329.801 150.196C329.319 150.196 328.896 150.303 328.534 150.516C328.179 150.722 327.905 151.02 327.713 151.411C327.522 151.794 327.422 152.256 327.415 152.795ZM346.81 152.795V162H340.929V140.182H346.597V148.747H346.767C347.136 147.703 347.751 146.89 348.61 146.308C349.469 145.718 350.503 145.423 351.71 145.423C352.868 145.423 353.873 145.686 354.725 146.212C355.585 146.737 356.249 147.462 356.717 148.385C357.193 149.308 357.428 150.366 357.42 151.56V162H351.54V152.795C351.547 151.986 351.344 151.35 350.933 150.888C350.528 150.427 349.949 150.196 349.196 150.196C348.72 150.196 348.301 150.303 347.939 150.516C347.584 150.722 347.307 151.02 347.108 151.411C346.916 151.794 346.817 152.256 346.81 152.795ZM368.207 162.298C366.431 162.298 364.912 161.947 363.647 161.244C362.383 160.533 361.414 159.546 360.739 158.282C360.064 157.011 359.727 155.537 359.727 153.861C359.727 152.185 360.064 150.714 360.739 149.45C361.414 148.179 362.383 147.192 363.647 146.489C364.912 145.778 366.431 145.423 368.207 145.423C369.983 145.423 371.502 145.778 372.767 146.489C374.031 147.192 375 148.179 375.675 149.45C376.35 150.714 376.687 152.185 376.687 153.861C376.687 155.537 376.35 157.011 375.675 158.282C375 159.546 374.031 160.533 372.767 161.244C371.502 161.947 369.983 162.298 368.207 162.298ZM368.25 157.952C368.747 157.952 369.176 157.785 369.539 157.451C369.901 157.117 370.181 156.641 370.38 156.023C370.579 155.406 370.679 154.67 370.679 153.818C370.679 152.959 370.579 152.224 370.38 151.613C370.181 150.995 369.901 150.519 369.539 150.185C369.176 149.852 368.747 149.685 368.25 149.685C367.724 149.685 367.273 149.852 366.897 150.185C366.52 150.519 366.233 150.995 366.034 151.613C365.835 152.224 365.735 152.959 365.735 153.818C365.735 154.67 365.835 155.406 366.034 156.023C366.233 156.641 366.52 157.117 366.897 157.451C367.273 157.785 367.724 157.952 368.25 157.952Z" fill="white"/>
</svg>
